# xmcd
#
# Track frame offsets: 
#        150
#        10095
#        20165
#        31762
#        42071
#        52983
#        64056
#        74285
#        85178
#        94769
#        105812
#        116582
#        127352
#        141039
#        150350
#        161668
#        171467
#        183627
#
# Disc length: 2597 seconds
#
# Revision: 0
# Processed by: cddbd v1.5.2PL0 Copyright (c) Steve Scherf et al.
# Submitted via: ExactAudioCopy v0.95b4
#
DISCID=e90a2312
DTITLE=Reno and Smiley - 1959-1963 [CD2]
DYEAR=2006
DGENRE=Bluegrass
TTITLE0=Lee's March
TTITLE1=Follow the Leader
TTITLE2=Double Eagle
TTITLE3=Carry Me Back to Old Virginia
TTITLE4=Washington and Lee Swing
TTITLE5=Goodbye Liza Jane
TTITLE6=Birth of the Blues
TTITLE7=Flop Eared Mule
TTITLE8=World Is Waiting for the Sunrise
TTITLE9=Ho-Dancin' Bully of the Town
TTITLE10=Buffalo Gal
TTITLE11=Speedin' (John Hardy)
TTITLE12=Sweet Thing
TTITLE13=I'm Just a Used to Be to You
TTITLE14=That Moon Is No Stopping Place for Me
TTITLE15=Higher
TTITLE16=Jimmy Caught the Dickens (Pushing Ernest in the Tub)
TTITLE17=Just Doing Rock and Roll
EXTD=
EXTT0=
EXTT1=
EXTT2=
EXTT3=
EXTT4=
EXTT5=
EXTT6=
EXTT7=
EXTT8=
EXTT9=
EXTT10=
EXTT11=
EXTT12=
EXTT13=
EXTT14=
EXTT15=
EXTT16=
EXTT17=
PLAYORDER=
